# This file uses centimeters as units for non-parametric coordinates.

mtllib Spikey.mtl
g default
v -1.869213 -1.869213 1.869213
v -0.250000 -0.500000 0.500000
v 0.000000 -1.869213 1.869213
v 0.250000 -0.500000 0.500000
v 1.869213 -1.869213 1.869213
v -0.500000 -0.250000 0.500000
v -0.250000 -0.250000 0.500000
v 0.000000 -0.250000 0.500000
v 0.250000 -0.250000 0.500000
v 0.500000 -0.250000 0.500000
v -1.869213 -0.000000 1.869213
v -0.250000 0.000000 0.500000
v -0.000000 0.000000 1.869213
v 0.250000 0.000000 0.500000
v 1.869213 0.000000 1.869213
v -0.500000 0.250000 0.500000
v -0.250000 0.250000 0.500000
v 0.000000 0.250000 0.500000
v 0.250000 0.250000 0.500000
v 0.500000 0.250000 0.500000
v -1.869213 1.869213 1.869213
v -0.250000 0.500000 0.500000
v 0.000000 1.869213 1.869213
v 0.250000 0.500000 0.500000
v 1.869213 1.869213 1.869213
v -0.500000 0.500000 0.250000
v -0.250000 0.500000 0.250000
v 0.000000 0.500000 0.250000
v 0.250000 0.500000 0.250000
v 0.500000 0.500000 0.250000
v -1.869213 1.869213 0.000000
v -0.250000 0.500000 0.000000
v 0.000000 1.869213 0.000000
v 0.250000 0.500000 0.000000
v 1.869213 1.869213 0.000000
v -0.500000 0.500000 -0.250000
v -0.250000 0.500000 -0.250000
v 0.000000 0.500000 -0.250000
v 0.250000 0.500000 -0.250000
v 0.500000 0.500000 -0.250000
v -1.869213 1.869213 -1.869213
v -0.250000 0.500000 -0.500000
v 0.000000 1.869213 -1.869213
v 0.250000 0.500000 -0.500000
v 1.869213 1.869213 -1.869213
v -0.500000 0.250000 -0.500000
v -0.250000 0.250000 -0.500000
v 0.000000 0.250000 -0.500000
v 0.250000 0.250000 -0.500000
v 0.500000 0.250000 -0.500000
v -1.869213 -0.000000 -1.869213
v -0.250000 0.000000 -0.500000
v 0.000000 -0.000000 -1.869213
v 0.250000 0.000000 -0.500000
v 1.869213 -0.000000 -1.869213
v -0.500000 -0.250000 -0.500000
v -0.250000 -0.250000 -0.500000
v 0.000000 -0.250000 -0.500000
v 0.250000 -0.250000 -0.500000
v 0.500000 -0.250000 -0.500000
v -1.869213 -1.869213 -1.869213
v -0.250000 -0.500000 -0.500000
v 0.000000 -1.869213 -1.869213
v 0.250000 -0.500000 -0.500000
v 1.869213 -1.869213 -1.869213
v -0.500000 -0.500000 -0.250000
v -0.250000 -0.500000 -0.250000
v 0.000000 -0.500000 -0.250000
v 0.250000 -0.500000 -0.250000
v 0.500000 -0.500000 -0.250000
v -1.869213 -1.869213 0.000000
v -0.250000 -0.500000 0.000000
v 0.000000 -1.869213 0.000000
v 0.250000 -0.500000 0.000000
v 1.869213 -1.869213 0.000000
v -0.500000 -0.500000 0.250000
v -0.250000 -0.500000 0.250000
v 0.000000 -0.500000 0.250000
v 0.250000 -0.500000 0.250000
v 0.500000 -0.500000 0.250000
v 0.500000 -0.250000 -0.250000
v 0.500000 -0.250000 0.000000
v 0.500000 -0.250000 0.250000
v 0.500000 0.000000 -0.250000
v 1.869213 -0.000000 0.000000
v 0.500000 0.000000 0.250000
v 0.500000 0.250000 -0.250000
v 0.500000 0.250000 0.000000
v 0.500000 0.250000 0.250000
v -0.500000 -0.250000 -0.250000
v -0.500000 -0.250000 0.000000
v -0.500000 -0.250000 0.250000
v -0.500000 0.000000 -0.250000
v -1.869213 -0.000000 0.000000
v -0.500000 0.000000 0.250000
v -0.500000 0.250000 -0.250000
v -0.500000 0.250000 0.000000
v -0.500000 0.250000 0.250000
vt 0.375000 0.000000
vt 0.437500 0.000000
vt 0.500000 0.000000
vt 0.562500 0.000000
vt 0.625000 0.000000
vt 0.375000 0.062500
vt 0.437500 0.062500
vt 0.500000 0.062500
vt 0.562500 0.062500
vt 0.625000 0.062500
vt 0.375000 0.125000
vt 0.437500 0.125000
vt 0.500000 0.125000
vt 0.562500 0.125000
vt 0.625000 0.125000
vt 0.375000 0.187500
vt 0.437500 0.187500
vt 0.500000 0.187500
vt 0.562500 0.187500
vt 0.625000 0.187500
vt 0.375000 0.250000
vt 0.437500 0.250000
vt 0.500000 0.250000
vt 0.562500 0.250000
vt 0.625000 0.250000
vt 0.375000 0.312500
vt 0.437500 0.312500
vt 0.500000 0.312500
vt 0.562500 0.312500
vt 0.625000 0.312500
vt 0.375000 0.375000
vt 0.437500 0.375000
vt 0.500000 0.375000
vt 0.562500 0.375000
vt 0.625000 0.375000
vt 0.375000 0.437500
vt 0.437500 0.437500
vt 0.500000 0.437500
vt 0.562500 0.437500
vt 0.625000 0.437500
vt 0.375000 0.500000
vt 0.437500 0.500000
vt 0.500000 0.500000
vt 0.562500 0.500000
vt 0.625000 0.500000
vt 0.375000 0.562500
vt 0.437500 0.562500
vt 0.500000 0.562500
vt 0.562500 0.562500
vt 0.625000 0.562500
vt 0.375000 0.625000
vt 0.437500 0.625000
vt 0.500000 0.625000
vt 0.562500 0.625000
vt 0.625000 0.625000
vt 0.375000 0.687500
vt 0.437500 0.687500
vt 0.500000 0.687500
vt 0.562500 0.687500
vt 0.625000 0.687500
vt 0.375000 0.750000
vt 0.437500 0.750000
vt 0.500000 0.750000
vt 0.562500 0.750000
vt 0.625000 0.750000
vt 0.375000 0.812500
vt 0.437500 0.812500
vt 0.500000 0.812500
vt 0.562500 0.812500
vt 0.625000 0.812500
vt 0.375000 0.875000
vt 0.437500 0.875000
vt 0.500000 0.875000
vt 0.562500 0.875000
vt 0.625000 0.875000
vt 0.375000 0.937500
vt 0.437500 0.937500
vt 0.500000 0.937500
vt 0.562500 0.937500
vt 0.625000 0.937500
vt 0.375000 1.000000
vt 0.437500 1.000000
vt 0.500000 1.000000
vt 0.562500 1.000000
vt 0.625000 1.000000
vt 0.875000 0.000000
vt 0.812500 0.000000
vt 0.750000 0.000000
vt 0.687500 0.000000
vt 0.875000 0.062500
vt 0.812500 0.062500
vt 0.750000 0.062500
vt 0.687500 0.062500
vt 0.875000 0.125000
vt 0.812500 0.125000
vt 0.750000 0.125000
vt 0.687500 0.125000
vt 0.875000 0.187500
vt 0.812500 0.187500
vt 0.750000 0.187500
vt 0.687500 0.187500
vt 0.875000 0.250000
vt 0.812500 0.250000
vt 0.750000 0.250000
vt 0.687500 0.250000
vt 0.125000 0.000000
vt 0.187500 0.000000
vt 0.250000 0.000000
vt 0.312500 0.000000
vt 0.125000 0.062500
vt 0.187500 0.062500
vt 0.250000 0.062500
vt 0.312500 0.062500
vt 0.125000 0.125000
vt 0.187500 0.125000
vt 0.250000 0.125000
vt 0.312500 0.125000
vt 0.125000 0.187500
vt 0.187500 0.187500
vt 0.250000 0.187500
vt 0.312500 0.187500
vt 0.125000 0.250000
vt 0.187500 0.250000
vt 0.250000 0.250000
vt 0.312500 0.250000
vn 0.362880 0.362880 0.858275
vn 0.362880 0.362880 0.858275
vn 0.362880 0.362880 0.858275
vn 0.362880 0.362880 0.858275
vn -0.508743 0.508743 0.694522
vn -0.508743 0.508743 0.694522
vn -0.508743 0.508743 0.694522
vn -0.508743 0.508743 0.694522
vn 0.508743 0.508743 0.694522
vn 0.508743 0.508743 0.694522
vn 0.508743 0.508743 0.694522
vn 0.508743 0.508743 0.694522
vn -0.362880 0.362880 0.858275
vn -0.362880 0.362880 0.858275
vn -0.362880 0.362880 0.858275
vn -0.362880 0.362880 0.858275
vn 0.508743 -0.508743 0.694522
vn 0.508743 -0.508743 0.694522
vn 0.508743 -0.508743 0.694522
vn 0.508743 -0.508743 0.694522
vn -0.684650 -0.684650 0.250016
vn -0.684650 -0.684650 0.250016
vn -0.684650 -0.684650 0.250016
vn -0.684650 -0.684650 0.250016
vn 0.684650 -0.684650 0.250016
vn 0.684650 -0.684650 0.250016
vn 0.684650 -0.684650 0.250016
vn 0.684650 -0.684650 0.250016
vn -0.508743 -0.508743 0.694522
vn -0.508743 -0.508743 0.694522
vn -0.508743 -0.508743 0.694522
vn -0.508743 -0.508743 0.694522
vn 0.508743 0.508743 0.694522
vn 0.508743 0.508743 0.694522
vn 0.508743 0.508743 0.694522
vn 0.508743 0.508743 0.694522
vn -0.684650 0.684650 0.250016
vn -0.684650 0.684650 0.250016
vn -0.684650 0.684650 0.250016
vn -0.684650 0.684650 0.250016
vn 0.684650 0.684650 0.250016
vn 0.684650 0.684650 0.250016
vn 0.684650 0.684650 0.250016
vn 0.684650 0.684650 0.250016
vn -0.508743 0.508743 0.694522
vn -0.508743 0.508743 0.694522
vn -0.508743 0.508743 0.694522
vn -0.508743 0.508743 0.694522
vn 0.362880 -0.362880 0.858275
vn 0.362880 -0.362880 0.858275
vn 0.362880 -0.362880 0.858275
vn 0.362880 -0.362880 0.858275
vn -0.508743 -0.508743 0.694522
vn -0.508743 -0.508743 0.694522
vn -0.508743 -0.508743 0.694522
vn -0.508743 -0.508743 0.694522
vn 0.508743 -0.508743 0.694522
vn 0.508743 -0.508743 0.694522
vn 0.508743 -0.508743 0.694522
vn 0.508743 -0.508743 0.694522
vn -0.362880 -0.362880 0.858275
vn -0.362880 -0.362880 0.858275
vn -0.362880 -0.362880 0.858275
vn -0.362880 -0.362880 0.858275
vn 0.362880 0.858275 -0.362880
vn 0.362880 0.858275 -0.362880
vn 0.362880 0.858275 -0.362880
vn 0.362880 0.858275 -0.362880
vn -0.508743 0.694522 -0.508743
vn -0.508743 0.694522 -0.508743
vn -0.508743 0.694522 -0.508743
vn -0.508743 0.694522 -0.508743
vn 0.508743 0.694522 -0.508743
vn 0.508743 0.694522 -0.508743
vn 0.508743 0.694522 -0.508743
vn 0.508743 0.694522 -0.508743
vn -0.362880 0.858275 -0.362880
vn -0.362880 0.858275 -0.362880
vn -0.362880 0.858275 -0.362880
vn -0.362880 0.858275 -0.362880
vn 0.508743 0.694522 0.508743
vn 0.508743 0.694522 0.508743
vn 0.508743 0.694522 0.508743
vn 0.508743 0.694522 0.508743
vn -0.684650 0.250016 0.684650
vn -0.684650 0.250016 0.684650
vn -0.684650 0.250016 0.684650
vn -0.684650 0.250016 0.684650
vn 0.684650 0.250016 0.684650
vn 0.684650 0.250016 0.684650
vn 0.684650 0.250016 0.684650
vn 0.684650 0.250016 0.684650
vn -0.508743 0.694522 0.508743
vn -0.508743 0.694522 0.508743
vn -0.508743 0.694522 0.508743
vn -0.508743 0.694522 0.508743
vn 0.508743 0.694522 -0.508743
vn 0.508743 0.694522 -0.508743
vn 0.508743 0.694522 -0.508743
vn 0.508743 0.694522 -0.508743
vn -0.684650 0.250016 -0.684650
vn -0.684650 0.250016 -0.684650
vn -0.684650 0.250016 -0.684650
vn -0.684650 0.250016 -0.684650
vn 0.684650 0.250016 -0.684650
vn 0.684650 0.250016 -0.684650
vn 0.684650 0.250016 -0.684650
vn 0.684650 0.250016 -0.684650
vn -0.508743 0.694522 -0.508743
vn -0.508743 0.694522 -0.508743
vn -0.508743 0.694522 -0.508743
vn -0.508743 0.694522 -0.508743
vn 0.362880 0.858275 0.362880
vn 0.362880 0.858275 0.362880
vn 0.362880 0.858275 0.362880
vn 0.362880 0.858275 0.362880
vn -0.508743 0.694522 0.508743
vn -0.508743 0.694522 0.508743
vn -0.508743 0.694522 0.508743
vn -0.508743 0.694522 0.508743
vn 0.508743 0.694522 0.508743
vn 0.508743 0.694522 0.508743
vn 0.508743 0.694522 0.508743
vn 0.508743 0.694522 0.508743
vn -0.362880 0.858275 0.362880
vn -0.362880 0.858275 0.362880
vn -0.362880 0.858275 0.362880
vn -0.362880 0.858275 0.362880
vn 0.362880 -0.362880 -0.858275
vn 0.362880 -0.362880 -0.858275
vn 0.362880 -0.362880 -0.858275
vn 0.362880 -0.362880 -0.858275
vn -0.508743 -0.508743 -0.694522
vn -0.508743 -0.508743 -0.694522
vn -0.508743 -0.508743 -0.694522
vn -0.508743 -0.508743 -0.694522
vn 0.508743 -0.508743 -0.694522
vn 0.508743 -0.508743 -0.694522
vn 0.508743 -0.508743 -0.694522
vn 0.508743 -0.508743 -0.694522
vn -0.362880 -0.362880 -0.858275
vn -0.362880 -0.362880 -0.858275
vn -0.362880 -0.362880 -0.858275
vn -0.362880 -0.362880 -0.858275
vn 0.508743 0.508743 -0.694522
vn 0.508743 0.508743 -0.694522
vn 0.508743 0.508743 -0.694522
vn 0.508743 0.508743 -0.694522
vn -0.684650 0.684650 -0.250016
vn -0.684650 0.684650 -0.250016
vn -0.684650 0.684650 -0.250016
vn -0.684650 0.684650 -0.250016
vn 0.684650 0.684650 -0.250016
vn 0.684650 0.684650 -0.250016
vn 0.684650 0.684650 -0.250016
vn 0.684650 0.684650 -0.250016
vn -0.508743 0.508743 -0.694522
vn -0.508743 0.508743 -0.694522
vn -0.508743 0.508743 -0.694522
vn -0.508743 0.508743 -0.694522
vn 0.508743 -0.508743 -0.694522
vn 0.508743 -0.508743 -0.694522
vn 0.508743 -0.508743 -0.694522
vn 0.508743 -0.508743 -0.694522
vn -0.684650 -0.684650 -0.250016
vn -0.684650 -0.684650 -0.250016
vn -0.684650 -0.684650 -0.250016
vn -0.684650 -0.684650 -0.250016
vn 0.684650 -0.684650 -0.250016
vn 0.684650 -0.684650 -0.250016
vn 0.684650 -0.684650 -0.250016
vn 0.684650 -0.684650 -0.250016
vn -0.508743 -0.508743 -0.694522
vn -0.508743 -0.508743 -0.694522
vn -0.508743 -0.508743 -0.694522
vn -0.508743 -0.508743 -0.694522
vn 0.362880 0.362880 -0.858275
vn 0.362880 0.362880 -0.858275
vn 0.362880 0.362880 -0.858275
vn 0.362880 0.362880 -0.858275
vn -0.508743 0.508743 -0.694522
vn -0.508743 0.508743 -0.694522
vn -0.508743 0.508743 -0.694522
vn -0.508743 0.508743 -0.694522
vn 0.508743 0.508743 -0.694522
vn 0.508743 0.508743 -0.694522
vn 0.508743 0.508743 -0.694522
vn 0.508743 0.508743 -0.694522
vn -0.362880 0.362880 -0.858275
vn -0.362880 0.362880 -0.858275
vn -0.362880 0.362880 -0.858275
vn -0.362880 0.362880 -0.858275
vn 0.362880 -0.858275 0.362880
vn 0.362880 -0.858275 0.362880
vn 0.362880 -0.858275 0.362880
vn 0.362880 -0.858275 0.362880
vn -0.508743 -0.694522 0.508743
vn -0.508743 -0.694522 0.508743
vn -0.508743 -0.694522 0.508743
vn -0.508743 -0.694522 0.508743
vn 0.508743 -0.694522 0.508743
vn 0.508743 -0.694522 0.508743
vn 0.508743 -0.694522 0.508743
vn 0.508743 -0.694522 0.508743
vn -0.362880 -0.858275 0.362880
vn -0.362880 -0.858275 0.362880
vn -0.362880 -0.858275 0.362880
vn -0.362880 -0.858275 0.362880
vn 0.508743 -0.694522 -0.508743
vn 0.508743 -0.694522 -0.508743
vn 0.508743 -0.694522 -0.508743
vn 0.508743 -0.694522 -0.508743
vn -0.684650 -0.250016 -0.684650
vn -0.684650 -0.250016 -0.684650
vn -0.684650 -0.250016 -0.684650
vn -0.684650 -0.250016 -0.684650
vn 0.684650 -0.250016 -0.684650
vn 0.684650 -0.250016 -0.684650
vn 0.684650 -0.250016 -0.684650
vn 0.684650 -0.250016 -0.684650
vn -0.508743 -0.694522 -0.508743
vn -0.508743 -0.694522 -0.508743
vn -0.508743 -0.694522 -0.508743
vn -0.508743 -0.694522 -0.508743
vn 0.508743 -0.694522 0.508743
vn 0.508743 -0.694522 0.508743
vn 0.508743 -0.694522 0.508743
vn 0.508743 -0.694522 0.508743
vn -0.684650 -0.250016 0.684650
vn -0.684650 -0.250016 0.684650
vn -0.684650 -0.250016 0.684650
vn -0.684650 -0.250016 0.684650
vn 0.684650 -0.250016 0.684650
vn 0.684650 -0.250016 0.684650
vn 0.684650 -0.250016 0.684650
vn 0.684650 -0.250016 0.684650
vn -0.508743 -0.694522 0.508743
vn -0.508743 -0.694522 0.508743
vn -0.508743 -0.694522 0.508743
vn -0.508743 -0.694522 0.508743
vn 0.362880 -0.858275 -0.362880
vn 0.362880 -0.858275 -0.362880
vn 0.362880 -0.858275 -0.362880
vn 0.362880 -0.858275 -0.362880
vn -0.508743 -0.694522 -0.508743
vn -0.508743 -0.694522 -0.508743
vn -0.508743 -0.694522 -0.508743
vn -0.508743 -0.694522 -0.508743
vn 0.508743 -0.694522 -0.508743
vn 0.508743 -0.694522 -0.508743
vn 0.508743 -0.694522 -0.508743
vn 0.508743 -0.694522 -0.508743
vn -0.362880 -0.858275 -0.362880
vn -0.362880 -0.858275 -0.362880
vn -0.362880 -0.858275 -0.362880
vn -0.362880 -0.858275 -0.362880
vn 0.858275 0.362880 0.362880
vn 0.858275 0.362880 0.362880
vn 0.858275 0.362880 0.362880
vn 0.858275 0.362880 0.362880
vn 0.694522 0.508743 -0.508743
vn 0.694522 0.508743 -0.508743
vn 0.694522 0.508743 -0.508743
vn 0.694522 0.508743 -0.508743
vn 0.694522 0.508743 0.508743
vn 0.694522 0.508743 0.508743
vn 0.694522 0.508743 0.508743
vn 0.694522 0.508743 0.508743
vn 0.858275 0.362880 -0.362880
vn 0.858275 0.362880 -0.362880
vn 0.858275 0.362880 -0.362880
vn 0.858275 0.362880 -0.362880
vn 0.694522 -0.508743 0.508743
vn 0.694522 -0.508743 0.508743
vn 0.694522 -0.508743 0.508743
vn 0.694522 -0.508743 0.508743
vn 0.250016 -0.684650 -0.684650
vn 0.250016 -0.684650 -0.684650
vn 0.250016 -0.684650 -0.684650
vn 0.250016 -0.684650 -0.684650
vn 0.250016 -0.684650 0.684650
vn 0.250016 -0.684650 0.684650
vn 0.250016 -0.684650 0.684650
vn 0.250016 -0.684650 0.684650
vn 0.694522 -0.508743 -0.508743
vn 0.694522 -0.508743 -0.508743
vn 0.694522 -0.508743 -0.508743
vn 0.694522 -0.508743 -0.508743
vn 0.694522 0.508743 0.508743
vn 0.694522 0.508743 0.508743
vn 0.694522 0.508743 0.508743
vn 0.694522 0.508743 0.508743
vn 0.250016 0.684650 -0.684650
vn 0.250016 0.684650 -0.684650
vn 0.250016 0.684650 -0.684650
vn 0.250016 0.684650 -0.684650
vn 0.250016 0.684650 0.684650
vn 0.250016 0.684650 0.684650
vn 0.250016 0.684650 0.684650
vn 0.250016 0.684650 0.684650
vn 0.694522 0.508743 -0.508743
vn 0.694522 0.508743 -0.508743
vn 0.694522 0.508743 -0.508743
vn 0.694522 0.508743 -0.508743
vn 0.858275 -0.362880 0.362880
vn 0.858275 -0.362880 0.362880
vn 0.858275 -0.362880 0.362880
vn 0.858275 -0.362880 0.362880
vn 0.694522 -0.508743 -0.508743
vn 0.694522 -0.508743 -0.508743
vn 0.694522 -0.508743 -0.508743
vn 0.694522 -0.508743 -0.508743
vn 0.694522 -0.508743 0.508743
vn 0.694522 -0.508743 0.508743
vn 0.694522 -0.508743 0.508743
vn 0.694522 -0.508743 0.508743
vn 0.858275 -0.362880 -0.362880
vn 0.858275 -0.362880 -0.362880
vn 0.858275 -0.362880 -0.362880
vn 0.858275 -0.362880 -0.362880
vn -0.858275 0.362880 0.362880
vn -0.858275 0.362880 0.362880
vn -0.858275 0.362880 0.362880
vn -0.858275 0.362880 0.362880
vn -0.694522 0.508743 -0.508743
vn -0.694522 0.508743 -0.508743
vn -0.694522 0.508743 -0.508743
vn -0.694522 0.508743 -0.508743
vn -0.694522 0.508743 0.508743
vn -0.694522 0.508743 0.508743
vn -0.694522 0.508743 0.508743
vn -0.694522 0.508743 0.508743
vn -0.858275 0.362880 -0.362880
vn -0.858275 0.362880 -0.362880
vn -0.858275 0.362880 -0.362880
vn -0.858275 0.362880 -0.362880
vn -0.694522 -0.508743 0.508743
vn -0.694522 -0.508743 0.508743
vn -0.694522 -0.508743 0.508743
vn -0.694522 -0.508743 0.508743
vn -0.250016 -0.684650 -0.684650
vn -0.250016 -0.684650 -0.684650
vn -0.250016 -0.684650 -0.684650
vn -0.250016 -0.684650 -0.684650
vn -0.250016 -0.684650 0.684650
vn -0.250016 -0.684650 0.684650
vn -0.250016 -0.684650 0.684650
vn -0.250016 -0.684650 0.684650
vn -0.694522 -0.508743 -0.508743
vn -0.694522 -0.508743 -0.508743
vn -0.694522 -0.508743 -0.508743
vn -0.694522 -0.508743 -0.508743
vn -0.694522 0.508743 0.508743
vn -0.694522 0.508743 0.508743
vn -0.694522 0.508743 0.508743
vn -0.694522 0.508743 0.508743
vn -0.250016 0.684650 -0.684650
vn -0.250016 0.684650 -0.684650
vn -0.250016 0.684650 -0.684650
vn -0.250016 0.684650 -0.684650
vn -0.250016 0.684650 0.684650
vn -0.250016 0.684650 0.684650
vn -0.250016 0.684650 0.684650
vn -0.250016 0.684650 0.684650
vn -0.694522 0.508743 -0.508743
vn -0.694522 0.508743 -0.508743
vn -0.694522 0.508743 -0.508743
vn -0.694522 0.508743 -0.508743
vn -0.858275 -0.362880 0.362880
vn -0.858275 -0.362880 0.362880
vn -0.858275 -0.362880 0.362880
vn -0.858275 -0.362880 0.362880
vn -0.694522 -0.508743 -0.508743
vn -0.694522 -0.508743 -0.508743
vn -0.694522 -0.508743 -0.508743
vn -0.694522 -0.508743 -0.508743
vn -0.694522 -0.508743 0.508743
vn -0.694522 -0.508743 0.508743
vn -0.694522 -0.508743 0.508743
vn -0.694522 -0.508743 0.508743
vn -0.858275 -0.362880 -0.362880
vn -0.858275 -0.362880 -0.362880
vn -0.858275 -0.362880 -0.362880
vn -0.858275 -0.362880 -0.362880
s off
g pCube1
usemtl initialShadingGroup
f 1/1/1 2/2/2 7/7/3 6/6/4
f 2/2/5 3/3/6 8/8/7 7/7/8
f 3/3/9 4/4/10 9/9/11 8/8/12
f 4/4/13 5/5/14 10/10/15 9/9/16
f 6/6/17 7/7/18 12/12/19 11/11/20
f 7/7/21 8/8/22 13/13/23 12/12/24
f 8/8/25 9/9/26 14/14/27 13/13/28
f 9/9/29 10/10/30 15/15/31 14/14/32
f 11/11/33 12/12/34 17/17/35 16/16/36
f 12/12/37 13/13/38 18/18/39 17/17/40
f 13/13/41 14/14/42 19/19/43 18/18/44
f 14/14/45 15/15/46 20/20/47 19/19/48
f 16/16/49 17/17/50 22/22/51 21/21/52
f 17/17/53 18/18/54 23/23/55 22/22/56
f 18/18/57 19/19/58 24/24/59 23/23/60
f 19/19/61 20/20/62 25/25/63 24/24/64
f 21/21/65 22/22/66 27/27/67 26/26/68
f 22/22/69 23/23/70 28/28/71 27/27/72
f 23/23/73 24/24/74 29/29/75 28/28/76
f 24/24/77 25/25/78 30/30/79 29/29/80
f 26/26/81 27/27/82 32/32/83 31/31/84
f 27/27/85 28/28/86 33/33/87 32/32/88
f 28/28/89 29/29/90 34/34/91 33/33/92
f 29/29/93 30/30/94 35/35/95 34/34/96
f 31/31/97 32/32/98 37/37/99 36/36/100
f 32/32/101 33/33/102 38/38/103 37/37/104
f 33/33/105 34/34/106 39/39/107 38/38/108
f 34/34/109 35/35/110 40/40/111 39/39/112
f 36/36/113 37/37/114 42/42/115 41/41/116
f 37/37/117 38/38/118 43/43/119 42/42/120
f 38/38/121 39/39/122 44/44/123 43/43/124
f 39/39/125 40/40/126 45/45/127 44/44/128
f 41/41/129 42/42/130 47/47/131 46/46/132
f 42/42/133 43/43/134 48/48/135 47/47/136
f 43/43/137 44/44/138 49/49/139 48/48/140
f 44/44/141 45/45/142 50/50/143 49/49/144
f 46/46/145 47/47/146 52/52/147 51/51/148
f 47/47/149 48/48/150 53/53/151 52/52/152
f 48/48/153 49/49/154 54/54/155 53/53/156
f 49/49/157 50/50/158 55/55/159 54/54/160
f 51/51/161 52/52/162 57/57/163 56/56/164
f 52/52/165 53/53/166 58/58/167 57/57/168
f 53/53/169 54/54/170 59/59/171 58/58/172
f 54/54/173 55/55/174 60/60/175 59/59/176
f 56/56/177 57/57/178 62/62/179 61/61/180
f 57/57/181 58/58/182 63/63/183 62/62/184
f 58/58/185 59/59/186 64/64/187 63/63/188
f 59/59/189 60/60/190 65/65/191 64/64/192
f 61/61/193 62/62/194 67/67/195 66/66/196
f 62/62/197 63/63/198 68/68/199 67/67/200
f 63/63/201 64/64/202 69/69/203 68/68/204
f 64/64/205 65/65/206 70/70/207 69/69/208
f 66/66/209 67/67/210 72/72/211 71/71/212
f 67/67/213 68/68/214 73/73/215 72/72/216
f 68/68/217 69/69/218 74/74/219 73/73/220
f 69/69/221 70/70/222 75/75/223 74/74/224
f 71/71/225 72/72/226 77/77/227 76/76/228
f 72/72/229 73/73/230 78/78/231 77/77/232
f 73/73/233 74/74/234 79/79/235 78/78/236
f 74/74/237 75/75/238 80/80/239 79/79/240
f 76/76/241 77/77/242 2/82/243 1/81/244
f 77/77/245 78/78/246 3/83/247 2/82/248
f 78/78/249 79/79/250 4/84/251 3/83/252
f 79/79/253 80/80/254 5/85/255 4/84/256
f 70/87/257 65/86/258 60/90/259 81/91/260
f 75/88/261 70/87/262 81/91/263 82/92/264
f 80/89/265 75/88/266 82/92/267 83/93/268
f 5/5/269 80/89/270 83/93/271 10/10/272
f 81/91/273 60/90/274 55/94/275 84/95/276
f 82/92/277 81/91/278 84/95/279 85/96/280
f 83/93/281 82/92/282 85/96/283 86/97/284
f 10/10/285 83/93/286 86/97/287 15/15/288
f 84/95/289 55/94/290 50/98/291 87/99/292
f 85/96/293 84/95/294 87/99/295 88/100/296
f 86/97/297 85/96/298 88/100/299 89/101/300
f 15/15/301 86/97/302 89/101/303 20/20/304
f 87/99/305 50/98/306 45/102/307 40/103/308
f 88/100/309 87/99/310 40/103/311 35/104/312
f 89/101/313 88/100/314 35/104/315 30/105/316
f 20/20/317 89/101/318 30/105/319 25/25/320
f 61/106/321 66/107/322 90/111/323 56/110/324
f 66/107/325 71/108/326 91/112/327 90/111/328
f 71/108/329 76/109/330 92/113/331 91/112/332
f 76/109/333 1/1/334 6/6/335 92/113/336
f 56/110/337 90/111/338 93/115/339 51/114/340
f 90/111/341 91/112/342 94/116/343 93/115/344
f 91/112/345 92/113/346 95/117/347 94/116/348
f 92/113/349 6/6/350 11/11/351 95/117/352
f 51/114/353 93/115/354 96/119/355 46/118/356
f 93/115/357 94/116/358 97/120/359 96/119/360
f 94/116/361 95/117/362 98/121/363 97/120/364
f 95/117/365 11/11/366 16/16/367 98/121/368
f 46/118/369 96/119/370 36/123/371 41/122/372
f 96/119/373 97/120/374 31/124/375 36/123/376
f 97/120/377 98/121/378 26/125/379 31/124/380
f 98/121/381 16/16/382 21/21/383 26/125/384
